<svg width="34" height="35" viewBox="0 0 34 35" fill="none" xmlns="http://www.w3.org/2000/svg">
<path d="M2 34.1542C0.89543 34.1542 0 33.2588 0 32.1542V13.2398C0 12.1353 0.89543 11.2398 2 11.2398H5.63809C6.74266 11.2398 7.63809 12.1353 7.63809 13.2398V32.1542C7.63809 33.2588 6.74266 34.1542 5.63809 34.1542H2ZM14.846 34.1542C13.7414 34.1542 12.846 33.2588 12.846 32.1542V2.82422C12.846 1.71965 13.7414 0.824219 14.846 0.824219H18.484C19.5886 0.824219 20.484 1.71965 20.484 2.82422V32.1542C20.484 33.2588 19.5886 34.1542 18.484 34.1542H14.846ZM27.6919 34.1542C26.5873 34.1542 25.6919 33.2588 25.6919 32.1542V21.5723C25.6919 20.4678 26.5873 19.5723 27.6919 19.5723H31.33C32.4346 19.5723 33.33 20.4678 33.33 21.5723V32.1542C33.33 33.2588 32.4346 34.1542 31.33 34.1542H27.6919Z" fill="#607D8B"/>
</svg>
