<svg width="32" height="33" viewBox="0 0 32 33" fill="none" xmlns="http://www.w3.org/2000/svg">
<path d="M9.43084 14.1952C7.87119 14.1952 6.91171 12.4894 7.72172 11.1566L13.3328 1.92378C14.1118 0.642001 15.9722 0.642046 16.7511 1.92386L22.3615 11.1566C23.1715 12.4895 22.212 14.1952 20.6524 14.1952H9.43084ZM24.333 33.0069C22.2777 33.0069 20.5417 32.2795 19.125 30.8248C17.7083 29.37 17 27.6115 17 25.5494C17 23.4879 17.7153 21.7297 19.146 20.275C20.5767 18.8202 22.3057 18.0928 24.333 18.0928C26.361 18.0928 28.0903 18.8202 29.521 20.275C30.9517 21.7297 31.667 23.4879 31.667 25.5494C31.667 27.64 30.9517 29.4056 29.521 30.8461C28.0903 32.2867 26.361 33.0069 24.333 33.0069ZM2 32.0318C0.89543 32.0318 0 31.1363 0 30.0318V20.8982C0 19.7936 0.895431 18.8982 2 18.8982H10.875C11.9796 18.8982 12.875 19.7936 12.875 20.8982V30.0318C12.875 31.1363 11.9796 32.0318 10.875 32.0318H2Z" fill="#607D8B"/>
</svg>
