<svg width="34" height="34" viewBox="0 0 34 34" fill="none" xmlns="http://www.w3.org/2000/svg">
<path d="M16.9997 33.4915C14.7126 33.4915 12.5552 33.054 10.5275 32.179C8.49969 31.304 6.73116 30.1119 5.22188 28.6027C3.71263 27.0934 2.52051 25.3249 1.64551 23.2971C0.770508 21.2693 0.333008 19.1119 0.333008 16.8249C0.333008 14.5193 0.770508 12.3526 1.64551 10.3249C2.52051 8.29709 3.71263 6.5332 5.22188 5.0332C6.73116 3.5332 8.49969 2.3457 10.5275 1.4707C12.5552 0.595703 14.7126 0.158203 16.9997 0.158203C19.3052 0.158203 21.4719 0.595703 23.4997 1.4707C25.5275 2.3457 27.2913 3.5332 28.7913 5.0332C30.2913 6.5332 31.4788 8.29709 32.3538 10.3249C33.2288 12.3526 33.6663 14.5193 33.6663 16.8249C33.6663 17.6119 33.6154 18.3943 33.5136 19.1721C33.4117 19.9499 33.2543 20.7045 33.0413 21.436C32.708 21.0841 32.3307 20.7832 31.9094 20.5332C31.4881 20.2832 31.0275 20.1026 30.5275 19.9915C30.6478 19.4823 30.7381 18.9661 30.7983 18.443C30.8585 17.9198 30.8886 17.3804 30.8886 16.8249C30.8886 12.9545 29.5414 9.67209 26.8469 6.97762C24.1525 4.28318 20.87 2.93595 16.9997 2.93595C13.1478 2.93595 9.87004 4.28318 7.16634 6.97762C4.46262 9.67209 3.11076 12.9545 3.11076 16.8249C3.11076 20.6767 4.46262 23.9545 7.16634 26.6582C9.87004 29.3619 13.1478 30.7138 16.9997 30.7138C18.546 30.7138 20.0159 30.473 21.4094 29.9915C22.8029 29.5101 24.0784 28.848 25.2358 28.0054C25.5321 28.3851 25.8724 28.7277 26.2566 29.0332C26.6409 29.3388 27.0552 29.5795 27.4997 29.7554C26.0645 30.9314 24.4557 31.848 22.6733 32.5054C20.8909 33.1628 18.9997 33.4915 16.9997 33.4915ZM29.3608 26.7971C28.8516 26.7971 28.4233 26.6235 28.0761 26.2762C27.7289 25.929 27.5553 25.5008 27.5553 24.9915C27.5553 24.4823 27.7289 24.0541 28.0761 23.7068C28.4233 23.3596 28.8516 23.186 29.3608 23.186C29.8701 23.186 30.2983 23.3596 30.6455 23.7068C30.9927 24.0541 31.1663 24.4823 31.1663 24.9915C31.1663 25.5008 30.9927 25.929 30.6455 26.2762C30.2983 26.6235 29.8701 26.7971 29.3608 26.7971ZM22.9163 24.7971L15.6941 17.3804V8.13041H18.4719V16.2693L24.9441 22.7693L22.9163 24.7971Z" fill="#607D8B"/>
</svg>
