<svg width="34" height="34" viewBox="0 0 34 34" fill="none" xmlns="http://www.w3.org/2000/svg">
<path d="M20.458 32.6982C19.9027 33.2262 19.2293 33.4902 18.438 33.4902C17.646 33.4902 16.986 33.2262 16.458 32.6982L1.12501 17.3652C0.847008 17.0872 0.645674 16.7746 0.521008 16.4272C0.395674 16.0799 0.333008 15.7259 0.333008 15.3652V2.94825C0.333008 2.14292 0.597008 1.47625 1.12501 0.94825C1.65301 0.42025 2.31967 0.15625 3.12501 0.15625H15.542C15.9027 0.15625 16.2637 0.218917 16.625 0.34425C16.9863 0.468917 17.3197 0.67025 17.625 0.94825L32.875 16.2402C33.4303 16.7956 33.708 17.4622 33.708 18.2402C33.708 19.0176 33.4303 19.6979 32.875 20.2812L20.458 32.6982ZM7.41701 9.49025C8.02767 9.49025 8.56234 9.26792 9.02101 8.82325C9.47901 8.37858 9.70801 7.83692 9.70801 7.19825C9.70801 6.58692 9.47901 6.05925 9.02101 5.61525C8.56234 5.17058 8.02767 4.94825 7.41701 4.94825C6.80567 4.94825 6.27067 5.17058 5.81201 5.61525C5.35401 6.05925 5.12501 6.58692 5.12501 7.19825C5.12501 7.83692 5.35401 8.37858 5.81201 8.82325C6.27067 9.26792 6.80567 9.49025 7.41701 9.49025Z" fill="#607D8B"/>
</svg>
