<svg width="16" height="12" viewBox="0 0 16 12" fill="none" xmlns="http://www.w3.org/2000/svg">
<path d="M5.54963 11.3996C5.4163 11.3996 5.2913 11.3786 5.17463 11.3366C5.05797 11.2953 4.94963 11.2246 4.84963 11.1246L0.549635 6.82461C0.366301 6.64128 0.278635 6.40361 0.286635 6.11161C0.295301 5.82028 0.391301 5.58294 0.574634 5.39961C0.757968 5.21628 0.991301 5.12461 1.27463 5.12461C1.55797 5.12461 1.7913 5.21628 1.97463 5.39961L5.54963 8.97461L14.0246 0.499609C14.208 0.316276 14.4456 0.224609 14.7376 0.224609C15.029 0.224609 15.2663 0.316276 15.4496 0.499609C15.633 0.682943 15.7246 0.920276 15.7246 1.21161C15.7246 1.50361 15.633 1.74128 15.4496 1.92461L6.24963 11.1246C6.14963 11.2246 6.0413 11.2953 5.92463 11.3366C5.80797 11.3786 5.68297 11.3996 5.54963 11.3996Z" fill="#12A03A"/>
</svg>
