<svg width="33" height="34" viewBox="0 0 33 34" fill="none" xmlns="http://www.w3.org/2000/svg">
<path d="M16.4835 0.824219C7.3755 0.824219 0 8.21622 0 17.3242C0 26.4322 7.3755 33.8242 16.4835 33.8242C25.608 33.8242 33 26.4322 33 17.3242C33 8.21622 25.608 0.824219 16.4835 0.824219ZM27.918 10.7242H23.0505C22.5225 8.66172 21.7635 6.68172 20.7735 4.85022C23.8095 5.88972 26.334 8.00172 27.918 10.7242ZM16.5 4.19022C17.8695 6.17022 18.942 8.36472 19.6515 10.7242H13.3485C14.058 8.36472 15.1305 6.17022 16.5 4.19022ZM3.729 20.6242C3.465 19.5682 3.3 18.4627 3.3 17.3242C3.3 16.1857 3.465 15.0802 3.729 14.0242H9.306C9.174 15.1132 9.075 16.2022 9.075 17.3242C9.075 18.4462 9.174 19.5352 9.306 20.6242H3.729ZM5.082 23.9242H9.9495C10.4775 25.9867 11.2365 27.9667 12.2265 29.7982C9.1905 28.7587 6.666 26.6632 5.082 23.9242ZM9.9495 10.7242H5.082C6.666 7.98522 9.1905 5.88972 12.2265 4.85022C11.2365 6.68172 10.4775 8.66172 9.9495 10.7242ZM16.5 30.4582C15.1305 28.4782 14.058 26.2837 13.3485 23.9242H19.6515C18.942 26.2837 17.8695 28.4782 16.5 30.4582ZM20.361 20.6242H12.639C12.4905 19.5352 12.375 18.4462 12.375 17.3242C12.375 16.2022 12.4905 15.0967 12.639 14.0242H20.361C20.5095 15.0967 20.625 16.2022 20.625 17.3242C20.625 18.4462 20.5095 19.5352 20.361 20.6242ZM20.7735 29.7982C21.7635 27.9667 22.5225 25.9867 23.0505 23.9242H27.918C26.334 26.6467 23.8095 28.7587 20.7735 29.7982ZM23.694 20.6242C23.826 19.5352 23.925 18.4462 23.925 17.3242C23.925 16.2022 23.826 15.1132 23.694 14.0242H29.271C29.535 15.0802 29.7 16.1857 29.7 17.3242C29.7 18.4627 29.535 19.5682 29.271 20.6242H23.694Z" fill="#607D8B"/>
</svg>
