<svg width="168" height="168" viewBox="0 0 168 168" fill="none" xmlns="http://www.w3.org/2000/svg">
<g filter="url(#filter0_ddd_9330_52520)">
<path d="M21.8405 45.3594C20.9493 45.3594 20.0947 45.7134 19.4646 46.3435C18.8345 46.9736 18.4805 47.8282 18.4805 48.7194C18.4805 49.6105 18.8345 50.4651 19.4646 51.0953C20.0947 51.7254 20.9493 52.0794 21.8405 52.0794C22.7316 52.0794 23.5862 51.7254 24.2163 51.0953C24.8465 50.4651 25.2005 49.6105 25.2005 48.7194C25.2005 47.8282 24.8465 46.9736 24.2163 46.3435C23.5862 45.7134 22.7316 45.3594 21.8405 45.3594Z" fill="#78A0CF"/>
<path d="M129.36 20.1602C128.915 20.1602 128.487 20.3372 128.172 20.6522C127.857 20.9673 127.68 21.3946 127.68 21.8402C127.68 22.2857 127.857 22.713 128.172 23.0281C128.487 23.3432 128.915 23.5202 129.36 23.5202C129.806 23.5202 130.233 23.3432 130.548 23.0281C130.863 22.713 131.04 22.2857 131.04 21.8402C131.04 21.3946 130.863 20.9673 130.548 20.6522C130.233 20.3372 129.806 20.1602 129.36 20.1602Z" fill="#F1BC19"/>
<path d="M83.9998 21.8398C67.514 21.8398 51.7034 28.3888 40.0461 40.0461C28.3888 51.7034 21.8398 67.514 21.8398 83.9998C21.8398 100.486 28.3888 116.296 40.0461 127.954C51.7034 139.611 67.514 146.16 83.9998 146.16C100.486 146.16 116.296 139.611 127.954 127.954C139.611 116.296 146.16 100.486 146.16 83.9998C146.16 67.514 139.611 51.7034 127.954 40.0461C116.296 28.3888 100.486 21.8398 83.9998 21.8398Z" fill="#E3EFFB"/>
<path d="M139.44 18.4805C137.658 18.4805 135.949 19.1885 134.688 20.4487C133.428 21.709 132.72 23.4182 132.72 25.2005C132.72 26.9827 133.428 28.692 134.688 29.9522C135.949 31.2125 137.658 31.9205 139.44 31.9205C141.222 31.9205 142.932 31.2125 144.192 29.9522C145.452 28.692 146.16 26.9827 146.16 25.2005C146.16 23.4182 145.452 21.709 144.192 20.4487C142.932 19.1885 141.222 18.4805 139.44 18.4805Z" fill="#F1BC19"/>
<path d="M146.16 36.9609C145.269 36.9609 144.414 37.3149 143.784 37.9451C143.154 38.5752 142.8 39.4298 142.8 40.3209C142.8 41.2121 143.154 42.0667 143.784 42.6968C144.414 43.3269 145.269 43.6809 146.16 43.6809C147.051 43.6809 147.906 43.3269 148.536 42.6968C149.166 42.0667 149.52 41.2121 149.52 40.3209C149.52 39.4298 149.166 38.5752 148.536 37.9451C147.906 37.3149 147.051 36.9609 146.16 36.9609Z" fill="#78A0CF"/>
<path d="M136.08 124.319C135.189 124.319 134.335 124.673 133.705 125.303C133.074 125.933 132.72 126.788 132.72 127.679C132.72 128.57 133.074 129.425 133.705 130.055C134.335 130.685 135.189 131.039 136.08 131.039C136.972 131.039 137.826 130.685 138.456 130.055C139.086 129.425 139.44 128.57 139.44 127.679C139.44 126.788 139.086 125.933 138.456 125.303C137.826 124.673 136.972 124.319 136.08 124.319ZM25.2005 99.1191C23.4182 99.1191 21.709 99.8271 20.4487 101.087C19.1885 102.348 18.4805 104.057 18.4805 105.839C18.4805 107.621 19.1885 109.331 20.4487 110.591C21.709 111.851 23.4182 112.559 25.2005 112.559C26.9827 112.559 28.692 111.851 29.9522 110.591C31.2125 109.331 31.9205 107.621 31.9205 105.839C31.9205 104.057 31.2125 102.348 29.9522 101.087C28.692 99.8271 26.9827 99.1191 25.2005 99.1191Z" fill="#FBCD59"/>
<path d="M41.9996 142.801C41.1085 142.801 40.2539 143.155 39.6238 143.785C38.9936 144.415 38.6396 145.27 38.6396 146.161C38.6396 147.052 38.9936 147.907 39.6238 148.537C40.2539 149.167 41.1085 149.521 41.9996 149.521C42.8908 149.521 43.7454 149.167 44.3755 148.537C45.0057 147.907 45.3596 147.052 45.3596 146.161C45.3596 145.27 45.0057 144.415 44.3755 143.785C43.7454 143.155 42.8908 142.801 41.9996 142.801Z" fill="#78A0CF"/>
<path d="M31.0799 85.6797C29.966 85.6797 28.8977 86.1222 28.11 86.9098C27.3224 87.6975 26.8799 88.7658 26.8799 89.8797C26.8799 90.9936 27.3224 92.0619 28.11 92.8495C28.8977 93.6372 29.966 94.0797 31.0799 94.0797C32.1938 94.0797 33.2621 93.6372 34.0497 92.8495C34.8374 92.0619 35.2799 90.9936 35.2799 89.8797C35.2799 88.7658 34.8374 87.6975 34.0497 86.9098C33.2621 86.1222 32.1938 85.6797 31.0799 85.6797Z" fill="white"/>
<path d="M35.2796 110.881C34.834 110.881 34.4067 111.058 34.0917 111.373C33.7766 111.688 33.5996 112.115 33.5996 112.561C33.5996 113.006 33.7766 113.434 34.0917 113.749C34.4067 114.064 34.834 114.241 35.2796 114.241C35.7252 114.241 36.1525 114.064 36.4676 113.749C36.7826 113.434 36.9596 113.006 36.9596 112.561C36.9596 112.115 36.7826 111.688 36.4676 111.373C36.1525 111.058 35.7252 110.881 35.2796 110.881Z" fill="#F1BC19"/>
<path d="M134.4 55.4395C133.955 55.4395 133.527 55.6165 133.212 55.9315C132.897 56.2466 132.72 56.6739 132.72 57.1195C132.72 57.565 132.897 57.9923 133.212 58.3074C133.527 58.6225 133.955 58.7995 134.4 58.7995C134.846 58.7995 135.273 58.6225 135.588 58.3074C135.903 57.9923 136.08 57.565 136.08 57.1195C136.08 56.6739 135.903 56.2466 135.588 55.9315C135.273 55.6165 134.846 55.4395 134.4 55.4395Z" fill="white"/>
<path d="M58.7987 121.463C52.0787 121.463 46.5347 115.919 46.5347 109.199V58.7992C46.5347 52.0792 52.0787 46.5352 58.7987 46.5352H109.199C115.919 46.5352 121.463 52.0792 121.463 58.7992V109.199C121.463 115.919 115.919 121.463 109.199 121.463H58.7987Z" fill="#BABCE2"/>
<path d="M109.2 47.7114C115.248 47.7114 120.288 52.7514 120.288 58.7994V109.199C120.288 115.247 115.248 120.287 109.2 120.287H58.7999C52.7519 120.287 47.7119 115.247 47.7119 109.199V58.7994C47.7119 52.7514 52.7519 47.7114 58.7999 47.7114H109.2ZM109.2 45.3594H58.7999C51.4079 45.3594 45.3599 51.4074 45.3599 58.7994V109.199C45.3599 116.591 51.4079 122.639 58.7999 122.639H109.2C116.592 122.639 122.64 116.591 122.64 109.199V58.7994C122.64 51.4074 116.592 45.3594 109.2 45.3594Z" fill="#472B29"/>
<path d="M115.08 80.4719V83.4959V107.52C115.08 111.72 111.72 115.08 107.52 115.08H60.4799C56.2799 115.08 52.9199 111.72 52.9199 107.52V60.4799C52.9199 56.2799 56.2799 52.9199 60.4799 52.9199H103.152H107.52C111.72 52.9199 115.08 56.2799 115.08 60.4799V66.1919V69.5519V71.2319V73.0799V77.9519V80.4719Z" fill="#FDFCEE"/>
<path d="M115.08 79.632C114.576 79.632 114.24 79.296 114.24 78.792V72.24C114.24 71.736 114.576 71.4 115.08 71.4C115.584 71.4 115.92 71.736 115.92 72.24V78.792C115.92 79.296 115.584 79.632 115.08 79.632ZM115.08 68.04C114.576 68.04 114.24 67.704 114.24 67.2V63.84C114.24 63.336 114.576 63 115.08 63C115.584 63 115.92 63.336 115.92 63.84V67.2C115.92 67.704 115.584 68.04 115.08 68.04Z" fill="#472B29"/>
<path d="M107.52 115.92H60.4801C55.7761 115.92 52.0801 112.224 52.0801 107.52V60.4801C52.0801 55.7761 55.7761 52.0801 60.4801 52.0801H103.152C103.656 52.0801 103.992 52.4161 103.992 52.9201C103.992 53.4241 103.656 53.7601 103.152 53.7601H60.4801C56.7841 53.7601 53.7601 56.7841 53.7601 60.4801V107.52C53.7601 111.216 56.7841 114.24 60.4801 114.24H107.52C111.216 114.24 114.24 111.216 114.24 107.52V83.3281C114.24 82.8241 114.576 82.4881 115.08 82.4881C115.584 82.4881 115.92 82.8241 115.92 83.3281V107.52C115.92 112.224 112.224 115.92 107.52 115.92Z" fill="#472B29"/>
<path d="M100.969 83.664C100.969 81.144 102.313 79.632 104.497 78.624C104.329 77.28 102.817 73.416 101.977 72.408C99.7934 73.416 97.7774 73.248 95.9294 71.568C94.0814 69.888 94.0814 67.704 95.0894 65.52C93.2414 64.344 91.0574 63.504 88.8734 63C88.2014 65.184 86.6894 66.528 84.5054 66.696C81.8174 66.864 80.1374 65.52 79.1294 63C76.9454 63.504 74.9294 64.344 72.9134 65.52C73.9214 67.704 73.7534 69.72 72.0734 71.568C70.3934 73.416 68.2094 73.584 66.0254 72.408C64.8494 74.256 64.0094 76.44 63.5054 78.624C65.6894 79.464 67.0334 80.976 67.2014 83.328C67.2014 85.848 65.8574 87.36 63.6734 88.368C64.1774 90.552 65.0174 92.568 66.1934 94.416C68.3774 93.408 70.3934 93.576 72.0734 95.256C73.7534 96.936 74.0894 98.952 73.0814 101.136C74.9294 102.312 77.1134 103.152 79.2974 103.656V103.488C80.1374 101.472 81.8174 100.128 84.0014 100.128C86.1854 100.128 88.0334 101.304 88.8734 103.488C89.0414 103.656 89.0414 103.656 89.2094 103.656C91.2254 103.152 93.0734 102.312 94.7534 101.304C94.9214 101.304 94.9214 101.136 95.0894 101.136C94.2494 99.456 94.2494 97.44 95.7614 95.76C97.4414 93.744 99.6254 93.408 101.977 94.416C103.153 92.568 103.993 90.552 104.497 88.368C102.313 87.528 100.969 86.016 100.969 83.664ZM84.0014 87.192C81.9854 87.192 80.4734 85.512 80.4734 83.664C80.4734 81.648 82.1534 80.136 84.1694 80.136C86.1854 80.136 87.6974 81.816 87.6974 83.832C87.5294 85.512 86.0174 87.192 84.0014 87.192Z" fill="#BCBCE2"/>
<path d="M79.2989 104.662C79.1309 104.494 79.2989 104.662 79.2989 104.662C76.9469 104.158 74.7629 103.318 72.9149 102.142C72.5789 101.974 72.5789 101.638 72.7469 101.302C73.5869 99.2856 73.4189 97.4376 71.9069 96.0936C70.3949 94.7496 68.7149 94.4136 66.6989 95.4216C66.3629 95.5896 66.0269 95.4216 65.8589 95.2536C64.6829 93.2376 63.6749 91.2216 63.1709 89.0376C63.1709 88.7016 63.3389 88.3656 63.5069 88.3656C65.6909 87.5256 66.6989 86.0136 66.6989 83.9976C66.6989 81.9816 65.5229 80.6376 63.5069 79.7976C63.1709 79.6296 63.0029 79.4616 63.1709 79.1256C63.6749 76.9416 64.5149 74.7576 65.6909 72.7416C65.8589 72.4056 66.1949 72.4056 66.5309 72.5736C68.7149 73.5816 70.3949 73.2456 71.9069 71.7336C73.4189 70.2216 73.5869 68.5416 72.5789 66.3576C72.4109 66.0216 72.5789 65.6856 72.7469 65.5176C74.5949 64.3416 76.7789 63.5016 79.1309 62.8296C79.4669 62.8296 79.8029 62.9976 79.8029 63.1656C80.6429 65.5176 82.1549 66.5256 84.5069 66.3576C86.3549 66.1896 87.6989 65.1816 88.3709 63.1656C88.5389 62.8296 88.7069 62.6616 89.0429 62.8296C91.2269 63.3336 93.4109 64.1736 95.4269 65.5176C95.7629 65.6856 95.7629 66.0216 95.5949 66.3576C94.5869 68.5416 94.9229 70.2216 96.2669 71.7336C97.7789 73.2456 99.4589 73.4136 101.643 72.4056C101.811 72.2376 102.147 72.4056 102.315 72.5736C103.155 73.5816 104.835 77.6136 105.003 79.1256C105.003 79.4616 104.835 79.6296 104.667 79.7976C102.483 80.6376 101.475 82.1496 101.475 84.1656C101.475 86.1816 102.483 87.5256 104.667 88.3656C105.003 88.5336 105.171 88.7016 105.003 89.0376C104.499 91.2216 103.659 93.4056 102.315 95.2536C102.147 95.5896 101.811 95.5896 101.475 95.4216C99.2909 94.4136 97.4429 94.7496 95.9309 96.5976C94.7549 97.9416 94.5869 99.6216 95.4269 101.47C95.5949 101.806 95.4269 102.142 95.2589 102.31L94.9229 102.478C93.0749 103.486 91.2269 104.326 89.2109 104.83C88.5389 104.998 88.2029 104.662 88.0349 104.326C87.3629 102.478 85.6829 101.47 83.8349 101.47C81.9869 101.47 80.4749 102.646 79.8029 104.494V104.662C79.8029 104.326 79.4669 104.662 79.2989 104.662ZM73.9229 101.134C75.4349 101.974 77.1149 102.646 78.9629 103.15C79.9709 100.966 81.8189 99.7896 84.0029 99.7896C86.3549 99.7896 88.2029 101.134 89.2109 103.15C91.0589 102.646 92.7389 101.974 94.2509 101.134C93.4109 98.9496 93.7469 97.1016 95.0909 95.4216C96.7709 93.4056 98.9549 92.9016 101.475 93.7416C102.315 92.2296 103.155 90.5496 103.491 88.7016C101.307 87.6936 100.131 86.0136 99.9629 83.6616C99.9629 81.1416 101.139 79.2936 103.491 78.2856C103.155 76.9416 102.147 74.4216 101.475 73.2456C99.1229 74.2536 96.9389 73.7496 95.2589 72.0696C93.5789 70.3896 93.0749 68.2056 94.0829 65.8536C92.5709 65.0136 90.8909 64.1736 89.0429 63.8376C88.2029 66.0216 86.5229 67.1976 84.3389 67.3656C81.6509 67.5336 79.6349 66.3576 78.6269 63.8376C76.7789 64.3416 75.0989 65.0136 73.5869 65.8536C74.5949 68.2056 74.0909 70.3896 72.4109 72.0696C70.7309 73.7496 68.5469 74.2536 66.1949 73.2456C65.3549 74.7576 64.6829 76.4376 64.1789 78.2856C66.3629 79.2936 67.7069 80.9736 67.7069 83.3256C67.7069 85.8456 66.5309 87.5256 64.1789 88.7016C64.6829 90.3816 65.3549 92.0616 66.3629 93.7416C68.7149 92.9016 70.7309 93.2376 72.4109 94.9176C74.2589 96.7656 74.7629 98.7816 73.9229 101.134ZM84.0029 87.6936C82.8269 87.6936 81.8189 87.1896 80.9789 86.5176C80.1389 85.6776 79.8029 84.6696 79.8029 83.4936C79.8029 82.3176 80.3069 81.3096 80.9789 80.4696C81.8189 79.6296 82.8269 79.2936 84.0029 79.2936C85.1789 79.2936 86.1869 79.7976 87.0269 80.6376C87.8669 81.4776 88.2029 82.4856 88.2029 83.6616C88.2029 86.0136 86.3549 87.6936 84.0029 87.6936ZM84.0029 80.6376C83.1629 80.6376 82.4909 80.9736 81.8189 81.4776C81.3149 81.9816 80.9789 82.8216 80.9789 83.4936C80.9789 84.1656 81.3149 85.0056 81.8189 85.6776C82.3229 86.1816 83.1629 86.5176 84.0029 86.5176C85.6829 86.5176 86.8589 85.1736 87.0269 83.6616C87.0269 82.8216 86.6909 82.1496 86.1869 81.4776C85.6829 80.9736 84.8429 80.6376 84.0029 80.6376C84.1709 80.6376 84.1709 80.6376 84.0029 80.6376Z" fill="#472B29"/>
<path d="M97.1021 80.4727C95.2541 73.4167 88.0301 69.2167 80.9741 70.8967C73.9181 72.7447 69.5501 79.8007 71.3981 86.8567C73.2461 93.9127 80.4701 98.1127 87.5261 96.4327C94.5821 94.5847 98.9501 87.5287 97.1021 80.4727ZM86.8541 93.9127C81.1421 95.4247 75.4301 91.8967 73.9181 86.3527C72.4061 80.6407 75.9341 74.9287 81.6461 73.5847C87.3581 72.2407 92.9021 75.7687 94.4141 81.3127C95.7581 86.8567 92.3981 92.4007 86.8541 93.9127Z" fill="#7878AA"/>
<path d="M84.1655 94.7526C79.2935 94.7526 74.9255 91.3926 73.5815 86.5206C72.9095 83.6646 73.2455 80.8086 74.7575 78.2886C76.2695 75.7686 78.6215 74.0886 81.4775 73.2486C84.3335 72.5766 87.1895 72.9126 89.7095 74.4246C92.2295 75.9366 93.9095 78.2886 94.7495 81.1446C96.2615 87.0246 92.7335 92.9046 86.8535 94.4166C85.8455 94.5846 85.0055 94.7526 84.1655 94.7526ZM84.1655 73.7526C83.3255 73.7526 82.4855 73.9206 81.6455 74.0886C79.1255 74.7606 76.9415 76.4406 75.4295 78.6246C73.9175 80.8086 73.7495 83.6646 74.2535 86.1846C75.5975 91.5606 81.1415 94.7526 86.3495 93.4086C91.7255 92.0646 94.9175 86.5206 93.5735 81.3126C92.9015 78.7926 91.2215 76.6086 89.0375 75.0966C87.6935 74.2566 85.8455 73.7526 84.1655 73.7526ZM71.5655 79.6326C71.3975 79.4646 71.5655 79.6326 71.5655 79.6326C71.2295 79.4646 71.0615 79.2966 71.2295 78.9606C72.7415 74.5926 76.4375 71.4006 80.8055 70.2246C80.9735 70.2246 81.3095 70.2246 81.3095 70.5606C81.3095 70.8966 81.3095 71.0646 80.9735 71.0646C76.7735 72.0726 73.4135 75.0966 72.0695 79.1286C71.9015 79.4646 71.7335 79.6326 71.5655 79.6326Z" fill="#472B29"/>
<path d="M84.3385 97.1016C82.9945 97.1016 81.4825 96.9336 80.1385 96.4296C75.4345 95.0856 71.9065 91.3896 70.7305 86.8536C70.7305 86.6856 70.7305 86.3496 71.0665 86.3496C71.2345 86.3496 71.5705 86.3496 71.5705 86.6856C72.5785 90.8856 75.9385 94.2456 80.4745 95.5896C85.0105 96.9336 89.5465 95.9256 92.9065 92.9016C93.0745 92.7336 93.4105 92.7336 93.5785 92.9016C93.7465 93.0696 93.7465 93.4056 93.5785 93.5736C91.0585 95.9256 87.6985 97.1016 84.3385 97.1016Z" fill="#472B29"/>
<path d="M95.7599 90.0508C95.4239 90.5548 95.2559 91.0588 94.9199 91.5628L95.7599 90.0508Z" fill="#A2A2CC"/>
<path d="M94.9185 91.8981C94.7505 91.8981 94.7505 91.8981 94.5825 91.8981C94.4145 91.7301 94.4146 91.5621 94.4146 91.2261C94.7506 90.7221 95.0866 90.3861 95.2546 89.8821C95.4226 89.7141 95.5905 89.5461 95.9265 89.7141C96.0945 89.8821 96.2626 90.0501 96.0946 90.3861C95.7586 90.8901 95.4225 91.3941 95.0865 91.8981H94.9185Z" fill="#472B29"/>
<path d="M97.1051 86.5195C96.9371 87.3595 96.6011 88.0315 96.2651 88.8715L97.1051 86.5195Z" fill="#A2A2CC"/>
<path d="M96.2652 89.3765H96.0972C95.9292 89.2085 95.7612 89.0406 95.9292 88.8726C96.2652 88.2006 96.4332 87.3605 96.6012 86.6885C96.6012 86.5205 96.9372 86.3526 97.1052 86.3526C97.2732 86.3526 97.4412 86.6885 97.4412 86.8565C97.2732 87.6965 96.9372 88.5365 96.6012 89.2085C96.6012 89.2085 96.4332 89.3765 96.2652 89.3765ZM96.9372 80.8085C96.7692 80.8085 96.6012 80.6405 96.4332 80.4725C95.4252 76.2725 92.2332 72.9125 88.2012 71.4005C88.0332 71.4005 87.8652 71.0645 87.8652 70.8965C87.8652 70.7285 88.2012 70.5605 88.3692 70.5605C92.7372 72.0725 96.0972 75.6005 97.1052 80.1365C97.4412 80.4725 97.2732 80.6405 96.9372 80.8085C97.1052 80.8085 97.1052 80.8085 96.9372 80.8085Z" fill="#472B29"/>
<path d="M88.8731 74.4241C88.7051 74.4241 88.7051 74.4241 88.7051 74.2561C88.7051 74.0881 88.7051 74.0881 88.8731 73.9201L92.4011 73.0801C92.5691 73.0801 92.5691 73.0801 92.7371 73.2481C92.7371 73.4161 92.7371 73.4161 92.5691 73.5841L88.8731 74.4241Z" fill="#472B29"/>
<path d="M91.8985 76.4377C91.7305 76.4377 91.7305 76.4377 91.7305 76.2697C91.7305 76.1017 91.7305 76.1017 91.8985 75.9337L94.5865 75.4297C94.7545 75.4297 94.7545 75.4297 94.9225 75.5977C95.0905 75.7657 94.9225 75.7657 94.7545 75.9337L91.8985 76.4377Z" fill="#472B29"/>
<path d="M93.5786 79.1271C93.4106 79.1271 93.4106 79.1271 93.4106 78.9591C93.4106 78.7911 93.4106 78.7911 93.5786 78.7911L96.2667 78.4551C96.4347 78.4551 96.4347 78.4551 96.4347 78.6231C96.4347 78.7911 96.4347 78.7911 96.2667 78.7911L93.5786 79.1271Z" fill="#472B29"/>
<path d="M79.2936 74.0845C79.1255 74.0845 79.1255 74.0845 79.1255 73.9165L78.7896 71.3965C78.7896 71.2285 78.7895 71.2285 78.9575 71.2285C79.1255 71.2285 79.1255 71.2285 79.1255 71.3965L79.4615 73.9165C79.4615 74.0845 79.4616 74.0845 79.2936 74.0845Z" fill="#472B29"/>
<path d="M77.2775 75.7662C77.1095 75.7662 77.1095 75.7662 77.1095 75.5982L76.2695 72.9102C76.2695 72.7422 76.2695 72.7422 76.4375 72.5742C76.6055 72.5742 76.6055 72.5742 76.7735 72.7422L77.6135 75.4302C77.4455 75.5982 77.4455 75.7662 77.2775 75.7662Z" fill="#472B29"/>
<path d="M75.4335 77.7857C75.4335 77.7857 75.2654 77.7857 75.2654 77.6177L73.5854 75.2657C73.5854 75.0977 73.5854 75.0977 73.5854 74.9297C73.7534 74.9297 73.7535 74.9297 73.9215 74.9297L75.6014 77.2817C75.6014 77.6177 75.6015 77.7857 75.4335 77.7857Z" fill="#472B29"/>
<path d="M71.9029 88.8751C71.7349 88.8751 71.7349 88.7071 71.7349 88.7071C71.7349 88.5391 71.9029 88.5391 71.9029 88.5391L74.5909 88.3711C74.7589 88.3711 74.7589 88.5391 74.7589 88.5391C74.7589 88.7071 74.5909 88.7071 74.5909 88.7071L71.9029 88.8751Z" fill="#472B29"/>
<path d="M73.4185 91.7288C73.2505 91.7288 73.2505 91.7288 73.2505 91.5608C73.2505 91.3928 73.2505 91.3928 73.4185 91.2248L76.1065 90.3848C76.2745 90.3848 76.2745 90.3848 76.4425 90.5528C76.4425 90.7208 76.4425 90.7208 76.2745 90.8888L73.4185 91.7288C73.5865 91.7288 73.5865 91.7288 73.4185 91.7288Z" fill="#472B29"/>
<path d="M76.2735 94.2503C76.2735 94.2503 76.1055 94.2503 76.1055 94.0823C76.1055 93.9143 76.1055 93.9143 76.2735 93.7463L78.4575 92.5703C78.6255 92.5703 78.6255 92.5703 78.7935 92.7383C78.7935 92.9063 78.7935 92.9063 78.6255 93.0743L76.2735 94.2503C76.4415 94.2503 76.4415 94.2503 76.2735 94.2503Z" fill="#472B29"/>
<path d="M79.9678 95.9281C79.7998 95.7601 79.7998 95.5921 79.7998 95.5921L81.4798 94.0801C81.6478 94.0801 81.6478 94.0801 81.8158 94.0801C81.8158 94.2481 81.8158 94.2481 81.8158 94.4161L79.9678 95.9281C80.1358 95.9281 80.1358 95.9281 79.9678 95.9281Z" fill="#472B29"/>
<path d="M83.9976 96.9361C83.8296 96.9361 83.9976 96.9361 83.9976 96.9361C83.8296 96.7681 83.8296 96.7681 83.8296 96.6001L85.1736 94.2481C85.1736 94.0801 85.3416 94.0801 85.5096 94.0801C85.6776 94.0801 85.6776 94.2481 85.6776 94.4161L84.3336 96.7681C84.1656 96.9361 83.9976 96.9361 83.9976 96.9361Z" fill="#472B29"/>
<path d="M88.1973 96.2662C88.0293 96.2662 88.0293 96.0982 88.0293 96.0982L88.1973 93.5782C88.1973 93.4102 88.3653 93.4102 88.3653 93.4102C88.5333 93.4102 88.5333 93.5782 88.5333 93.5782L88.3653 96.0982C88.3653 96.0982 88.3653 96.2662 88.1973 96.2662Z" fill="#472B29"/>
<path d="M82.1494 70.3926C82.9894 70.2246 83.8294 70.2246 84.6694 70.2246L82.1494 70.3926Z" fill="#A2A2CC"/>
<path d="M82.1544 70.8986C81.9864 70.8986 81.8184 70.7306 81.6504 70.5626C81.6504 70.3946 81.8184 70.0586 81.9864 70.0586C82.8264 69.8906 83.6664 69.8906 84.5064 69.8906C84.6744 69.8906 85.0104 70.0586 84.8424 70.3946C84.8424 70.5626 84.6744 70.7306 84.3384 70.7306C83.8344 70.7306 82.9944 70.7306 82.1544 70.8986Z" fill="#472B29"/>
</g>
<defs>
<filter id="filter0_ddd_9330_52520" x="-16" y="-14" width="200" height="200" filterUnits="userSpaceOnUse" color-interpolation-filters="sRGB">
<feFlood flood-opacity="0" result="BackgroundImageFix"/>
<feColorMatrix in="SourceAlpha" type="matrix" values="0 0 0 0 0 0 0 0 0 0 0 0 0 0 0 0 0 0 127 0" result="hardAlpha"/>
<feMorphology radius="1" operator="dilate" in="SourceAlpha" result="effect1_dropShadow_9330_52520"/>
<feOffset dy="2"/>
<feGaussianBlur stdDeviation="7.5"/>
<feColorMatrix type="matrix" values="0 0 0 0 0.564706 0 0 0 0 0.643137 0 0 0 0 0.682353 0 0 0 0.11 0"/>
<feBlend mode="normal" in2="BackgroundImageFix" result="effect1_dropShadow_9330_52520"/>
<feColorMatrix in="SourceAlpha" type="matrix" values="0 0 0 0 0 0 0 0 0 0 0 0 0 0 0 0 0 0 127 0" result="hardAlpha"/>
<feMorphology radius="1" operator="dilate" in="SourceAlpha" result="effect2_dropShadow_9330_52520"/>
<feOffset dy="7"/>
<feGaussianBlur stdDeviation="5"/>
<feColorMatrix type="matrix" values="0 0 0 0 0.564706 0 0 0 0 0.643137 0 0 0 0 0.682353 0 0 0 0.14 0"/>
<feBlend mode="normal" in2="effect1_dropShadow_9330_52520" result="effect2_dropShadow_9330_52520"/>
<feColorMatrix in="SourceAlpha" type="matrix" values="0 0 0 0 0 0 0 0 0 0 0 0 0 0 0 0 0 0 127 0" result="hardAlpha"/>
<feMorphology radius="2" operator="erode" in="SourceAlpha" result="effect3_dropShadow_9330_52520"/>
<feOffset dy="4"/>
<feGaussianBlur stdDeviation="2.5"/>
<feColorMatrix type="matrix" values="0 0 0 0 0.564706 0 0 0 0 0.643137 0 0 0 0 0.682353 0 0 0 0.25 0"/>
<feBlend mode="normal" in2="effect2_dropShadow_9330_52520" result="effect3_dropShadow_9330_52520"/>
<feBlend mode="normal" in="SourceGraphic" in2="effect3_dropShadow_9330_52520" result="shape"/>
</filter>
</defs>
</svg>
